<svg width="100" height="82" viewBox="0 0 100 82" fill="none" xmlns="http://www.w3.org/2000/svg">
<rect width="100" height="82" rx="16" fill="black"/>
<path d="M22.5743 38.3826L25.1546 37.0738L29.2331 30.7919L30.4816 30.2685L31.8133 36.6376L30.0654 36.8993L28.7337 34.2819L27.7348 38.3826H32.1463L36.7241 39.604L38.5553 38.3826L41.635 41.698L42.9667 35.5906L45.1308 37.8591L46.4625 35.9396L48.6266 35.3289L51.7895 32.2752L52.2889 30.7919L54.8692 31.2282L55.9512 32.7114L54.0369 36.8993L58.7812 34.3691V33.1476L60.6124 32.7114L62.61 34.8054L64.6076 32.2752V30.5302L67.8537 28.1745L69.1855 26.1678H71.2663L74.9287 18.4027L78.0916 15L79.2568 16.9195L77.4257 19.3624L78.0916 20.9329L79.8395 21.2819L81.2545 27.7383V33.1476L83.7515 36.7248L85 41.698L80.6718 38.8188L78.7574 30.5302L77.5922 30.7919L77.4257 36.3758L74.2628 41.698L73.3472 49.8121L75.5113 50.3356L76.4269 49.2013L78.5077 51.6443L80.0892 58.9732L79.9227 63.6846H77.9251L77.176 57.0537L75.761 59.0604L72.6813 58.3624L70.1843 56.1812L67.3543 57.2282L67.5208 61.9396L65.2735 62.5503L61.9441 65.1678L57.9489 64.6443L56.3674 63.6846L53.8704 64.1208L54.7027 65.1678L52.7051 66.3893L51.1237 65.604L48.1272 67L43.5493 64.6443L41.8014 60.4564L40.3032 60.6309L38.5553 59.1477L38.4721 58.0134L32.8954 57.4027L31.9798 60.5436L28.4839 58.8859L26.736 55.8322H22.9905L22.5743 60.7181L20.4102 61.4161L19.3282 65.8658L18.4958 65.0805L15 55.745L19.1617 53.651L18.4958 49.5503L17.83 45.3624L19.6611 42.6577L19.0785 41L21.5755 38.2081L22.5743 38.3826ZM77.9251 48.6779L81.7539 54.6107L83.0024 54.0872L81.4209 51.6443L77.9251 47.8054V48.6779ZM38.805 36.6376V34.8926L41.7182 32.7114L44.2152 31.4027H41.302L38.7218 32.9732L37.1403 34.4564V36.6376H38.805Z" fill="white"/>
</svg>
