<svg width="80" height="80" viewBox="0 0 80 80" fill="none" xmlns="http://www.w3.org/2000/svg">
<rect width="80" height="80" rx="16" fill="#2A2C2F"/>
<path d="M11.8827 37.3826L14.528 36.0738L18.7093 29.7919L19.9893 29.2685L21.3547 35.6376L19.5627 35.8993L18.1973 33.2819L17.1733 37.3826H21.696L26.3893 38.604L28.2667 37.3826L31.424 40.698L32.7893 34.5906L35.008 36.8591L36.3734 34.9396L38.592 34.3289L41.8347 31.2752L42.3467 29.7919L44.992 30.2282L46.1014 31.7114L44.1387 35.8993L49.0027 33.3691V32.1476L50.88 31.7114L52.928 33.8054L54.976 31.2752V29.5302L58.304 27.1745L59.6694 25.1678H61.8027L65.5574 17.4027L68.8001 14L69.9947 15.9195L68.1174 18.3624L68.8001 19.9329L70.5921 20.2819L72.0427 26.7383V32.1476L74.6027 35.7248L75.8827 40.698L71.4454 37.8188L69.4827 29.5302L68.2881 29.7919L68.1174 35.3758L64.8747 40.698L63.936 48.8121L66.1547 49.3356L67.0934 48.2013L69.2267 50.6443L70.8481 57.9732L70.6774 62.6846H68.6294L67.8614 56.0537L66.4107 58.0604L63.2534 57.3624L60.6934 55.1812L57.792 56.2282L57.9627 60.9396L55.6587 61.5503L52.2454 64.1678L48.1494 63.6443L46.528 62.6846L43.968 63.1208L44.8214 64.1678L42.7734 65.3893L41.152 64.604L38.08 66L33.3867 63.6443L31.5947 59.4564L30.0587 59.6309L28.2667 58.1477L28.1813 57.0134L22.464 56.4027L21.5253 59.5436L17.9413 57.8859L16.1493 54.8322H12.3093L11.8827 59.7181L9.66398 60.4161L8.55465 64.8658L7.70131 64.0805L4.11731 54.745L8.38398 52.651L7.70131 48.5503L7.01865 44.3624L8.89598 41.6577L8.29865 40L10.8587 37.2081L11.8827 37.3826ZM68.6294 47.6779L72.5547 53.6107L73.8347 53.0872L72.2134 50.6443L68.6294 46.8054V47.6779ZM28.5227 35.6376V33.8926L31.5093 31.7114L34.0693 30.4027H31.0827L28.4373 31.9732L26.816 33.4564V35.6376H28.5227Z" fill="white"/>
</svg>
